<?xml version="1.0" standalone="no"?>
<!DOCTYPE svg PUBLIC "-//W3C//DTD SVG 20010904//EN"
 "http://www.w3.org/TR/2001/REC-SVG-20010904/DTD/svg10.dtd">
<svg version="1.0" xmlns="http://www.w3.org/2000/svg"
 width="460.000000pt" height="460.000000pt" viewBox="0 0 460.000000 460.000000"
 preserveAspectRatio="xMidYMid meet">
<metadata>
Created by potrace 1.11, written by Peter Selinger 2001-2013
</metadata>
<g transform="translate(0.000000,460.000000) scale(0.100000,-0.100000)"
fill="#000000" stroke="none">
<path d="M1081 4258 c-76 -13 -138 -75 -163 -163 -15 -55 -19 -197 -7 -255 16
-76 66 -151 119 -178 88 -45 206 -19 254 56 26 41 50 106 44 123 -2 6 -28 21
-58 33 l-55 23 -15 -46 c-25 -76 -98 -94 -137 -35 -19 29 -30 160 -19 219 19
99 127 113 160 21 4 -12 12 -16 22 -12 9 4 36 11 61 17 49 13 49 16 11 97 -37
79 -120 117 -217 100z"/>
<path d="M2910 3933 l0 -303 69 0 c81 0 77 -8 75 141 l-1 107 56 0 c31 0 71 0
89 1 l32 1 0 60 0 60 -89 0 -88 0 1 53 1 52 97 1 c54 0 100 2 102 5 5 5 8 45
7 90 l-1 36 -175 0 -175 0 0 -304z"/>
<path d="M3339 4219 c-1 -10 -1 -30 -1 -44 0 -52 0 -51 61 -53 67 -1 70 2 67
73 l-1 40 -63 2 c-55 1 -62 -1 -63 -18z"/>
<path d="M3655 4204 c-27 -19 -57 -39 -65 -44 -8 -4 -15 -23 -16 -42 -1 -18
-2 -36 -3 -40 -1 -5 -10 -8 -21 -8 -21 0 -22 -2 -22 -65 0 -62 1 -64 22 -58
11 3 20 1 21 -3 1 -5 2 -56 3 -114 4 -176 19 -204 112 -207 86 -2 96 3 90 46
-3 20 -5 46 -6 58 0 19 -4 22 -29 17 -27 -6 -30 -4 -35 27 -3 19 -4 66 -3 104
l2 70 33 -1 c17 0 32 5 33 10 0 6 2 35 3 64 l1 52 -37 0 -37 0 2 85 c1 47 2
85 2 84 0 0 -22 -16 -50 -35z"/>
<path d="M1562 4093 c-8 -3 -22 -19 -33 -37 l-19 -31 0 31 c0 31 0 32 -55 32
-30 0 -56 -3 -56 -7 -1 -3 -2 -102 -3 -218 l-1 -213 62 0 63 0 0 113 c0 113
11 180 32 193 6 4 23 7 37 8 22 1 28 9 42 56 13 42 14 57 5 62 -18 10 -59 16
-74 11z"/>
<path d="M1795 4089 c-124 -34 -171 -256 -82 -383 40 -57 138 -81 210 -51 136
57 151 335 22 415 -37 23 -104 31 -150 19z m82 -117 c31 -20 44 -134 20 -181
-18 -35 -51 -44 -79 -21 -20 16 -23 27 -23 93 0 60 4 79 19 96 20 22 42 26 63
13z"/>
<path d="M2189 4090 c-44 -13 -68 -30 -84 -60 -21 -41 -19 -106 5 -145 21 -34
39 -44 131 -69 64 -18 78 -37 49 -66 -27 -27 -47 -25 -77 9 -22 24 -30 28 -66
23 -76 -8 -79 -11 -58 -57 26 -57 61 -77 146 -82 56 -4 77 0 105 15 68 37 94
121 62 195 -21 47 -41 58 -154 87 -51 13 -63 35 -33 60 18 15 62 0 71 -23 4
-10 16 -12 52 -6 26 4 53 8 60 8 19 1 -23 77 -53 97 -26 17 -116 26 -156 14z"/>
<path d="M2569 4090 c-71 -21 -106 -76 -96 -150 8 -64 33 -87 124 -115 81 -26
94 -35 85 -67 -9 -37 -84 -29 -97 11 -4 14 -13 17 -43 15 -88 -9 -99 -23 -63
-77 30 -45 57 -58 134 -64 59 -4 78 -1 107 15 83 46 104 168 39 229 -19 19
-51 33 -96 44 -72 17 -96 37 -74 63 19 22 35 20 69 -9 16 -13 31 -23 33 -20 3
2 24 6 48 9 24 3 45 6 46 8 8 8 -33 74 -56 90 -28 21 -116 31 -160 18z"/>
<path d="M3339 4053 c-1 -24 -1 -372 0 -400 1 -21 6 -23 64 -23 l63 0 0 220 0
220 -63 0 c-53 0 -63 -3 -64 -17z"/>
<path d="M420 3952 l-76 -3 -169 -169 -169 -169 77 -83 c42 -46 108 -117 146
-158 l70 -75 1 -1165 0 -1165 23 -47 c12 -26 69 -98 127 -160 58 -63 143 -156
190 -208 47 -51 96 -105 109 -119 13 -14 34 -39 48 -55 l25 -30 131 -1 c73 0
139 1 148 3 24 5 23 220 -2 227 -9 3 -23 3 -31 0 -14 -6 -144 150 -329 395
l-34 45 2 1154 c1 931 -1 1162 -12 1198 -8 26 -43 81 -89 138 -42 52 -76 97
-76 100 0 5 13 20 96 113 29 33 33 34 105 36 l74 1 3 98 c2 74 0 97 -10 98
-55 2 -318 3 -378 1z"/>
<path d="M3923 3952 l-113 -3 0 -99 0 -100 79 0 79 0 38 -47 c21 -26 49 -58
61 -71 13 -14 23 -28 23 -31 0 -3 -32 -46 -71 -94 -118 -147 -106 2 -105
-1325 2 -1210 3 -1178 -41 -1228 -10 -12 -81 -103 -158 -202 -130 -167 -143
-181 -175 -184 l-35 -3 0 -110 0 -110 140 2 140 2 40 44 c22 24 76 84 120 133
73 81 185 204 210 230 5 6 34 39 64 73 97 110 88 -18 89 1300 l0 1163 28 31
c16 17 34 36 39 42 6 7 49 55 98 107 48 52 97 106 108 119 l20 23 -168 168
-168 168 -115 2 c-63 2 -166 2 -227 0z"/>
<path d="M3337 3303 c-20 -16 -38 -39 -41 -53 -8 -44 -1 -2135 7 -2147 11 -18
151 -18 164 0 9 12 12 2162 3 2169 -3 2 -20 16 -38 31 -42 34 -50 34 -95 0z"/>
<path d="M1220 3268 l0 -48 45 0 45 0 0 50 0 51 -45 -2 -45 -3 0 -48z"/>
<path d="M2170 3305 l-65 -12 48 -21 c27 -12 53 -22 59 -22 6 0 8 -7 4 -15 -5
-14 50 -63 87 -79 9 -3 9 -7 0 -13 -8 -6 -7 -18 4 -48 25 -69 27 -79 15 -71
-8 5 -12 -5 -12 -33 0 -49 -9 -52 -32 -11 -10 17 -23 28 -30 25 -8 -3 -21 9
-32 30 -13 24 -31 39 -60 49 -77 28 -84 28 -91 7 -6 -19 -8 -19 -40 -4 -37 18
-44 14 -145 -66 l-45 -36 60 -10 c33 -6 82 -8 108 -5 34 5 50 3 54 -6 2 -6 33
-15 69 -19 44 -4 64 -11 64 -20 0 -8 11 -26 25 -41 33 -35 25 -42 -18 -15 -41
25 -47 26 -47 7 0 -11 -7 -13 -27 -7 -52 15 -169 -15 -167 -42 1 -10 -8 -20
-21 -23 -13 -3 -31 -14 -40 -24 -18 -20 -47 -128 -36 -135 4 -2 25 12 47 31
74 65 93 77 100 60 6 -17 25 -12 65 15 14 10 34 18 45 18 10 1 46 3 79 5 36 3
50 2 35 -3 -14 -4 -24 -14 -23 -22 1 -8 -19 -24 -48 -37 -50 -24 -84 -67 -73
-95 3 -8 -5 -33 -17 -56 -20 -40 -21 -47 -9 -99 l12 -57 49 53 c27 29 54 70
60 91 8 28 16 37 32 37 17 -1 25 9 36 42 9 29 18 42 27 38 7 -3 18 3 23 12 6
9 10 13 10 7 1 -5 3 -188 6 -405 6 -398 6 -616 2 -987 l-3 -203 62 0 c59 0 62
1 59 22 -2 13 -7 120 -10 238 -3 118 -8 253 -10 300 -7 153 -15 401 -20 635
-3 127 -8 247 -10 267 -3 28 -1 36 9 32 8 -3 13 -18 11 -36 -3 -39 5 -69 15
-63 11 7 23 -13 24 -39 2 -29 26 -86 37 -86 5 0 9 20 9 44 0 25 6 48 14 55 25
21 25 58 0 82 -25 23 -32 49 -14 49 18 0 11 19 -22 54 -17 19 -32 46 -33 60
-1 27 9 34 21 15 3 -6 14 -9 24 -6 12 3 30 -10 55 -40 21 -25 43 -42 50 -39
14 5 25 -14 25 -45 0 -10 10 -29 23 -41 23 -24 24 -26 26 -56 1 -19 60 -102
73 -102 4 0 6 54 4 121 l-3 120 -36 40 c-20 23 -33 47 -31 54 4 9 -11 19 -44
31 -28 10 -48 22 -46 26 3 4 -5 9 -18 10 -13 1 -32 3 -43 4 -11 1 -28 2 -38 3
-25 1 -11 21 15 21 11 0 22 8 25 18 4 17 11 18 55 11 28 -5 53 -11 56 -14 3
-2 11 0 17 5 8 7 25 1 54 -20 23 -17 46 -28 51 -25 5 3 16 -7 24 -22 18 -36
52 -67 64 -59 15 9 21 58 10 85 -6 15 -11 35 -12 45 -1 13 -15 24 -45 34 -27
9 -45 22 -49 34 -4 16 -11 18 -39 15 -23 -3 -36 -1 -39 8 -5 11 -13 11 -49 0
-30 -8 -47 -9 -54 -2 -7 7 -21 4 -46 -7 -53 -25 -62 -15 -25 27 18 21 30 40
27 43 -3 4 20 19 52 35 38 19 58 35 57 46 0 9 13 26 31 39 18 12 29 25 25 29
-4 3 0 12 8 18 23 17 70 82 70 95 0 14 -49 16 -84 2 -14 -5 -44 -26 -67 -47
-23 -21 -49 -38 -58 -38 -9 0 -28 -23 -44 -52 -16 -29 -34 -53 -41 -53 -6 0
-18 -17 -25 -37 -21 -60 -52 -123 -61 -123 -5 0 -4 14 2 30 5 17 8 45 5 63 -2
18 0 58 5 91 9 50 8 60 -5 67 -9 5 -13 17 -10 28 7 27 -24 81 -46 81 -10 0
-24 6 -30 14 -22 26 -63 33 -131 21z"/>
<path d="M3510 2173 c1 -1037 1 -1058 19 -1035 60 71 148 404 176 667 3 28 8
73 12 100 9 75 10 440 2 531 -11 115 -16 162 -24 224 -10 81 -51 266 -75 340
-24 72 -95 230 -104 230 -3 0 -6 -476 -6 -1057z"/>
<path d="M3238 3198 c-20 -31 -72 -151 -92 -213 -21 -66 -63 -257 -71 -320 -3
-27 -8 -61 -10 -75 -26 -152 -25 -618 1 -800 26 -182 50 -295 91 -445 28 -97
74 -208 92 -219 8 -5 11 268 11 1043 0 578 -2 1051 -4 1051 -2 0 -10 -10 -18
-22z"/>
<path d="M944 3178 l2 -33 322 -3 322 -2 0 35 0 35 -324 0 -324 0 2 -32z"/>
<path d="M945 3095 c2 -16 3 -33 4 -36 0 -3 145 -5 321 -5 l321 0 -3 35 -3 36
-321 0 -321 0 2 -30z"/>
<path d="M944 3005 l0 -35 141 -1 c77 -1 132 -3 123 -6 -13 -3 -18 -15 -18
-40 0 -25 5 -36 18 -39 16 -5 17 -44 14 -679 -2 -636 -1 -674 15 -678 10 -2 8
-3 -5 -2 -12 1 -26 -3 -30 -9 -11 -17 -9 -60 2 -68 6 -4 -51 -8 -126 -8 l-138
0 0 -40 0 -40 327 2 327 3 0 35 0 35 -150 5 c-82 3 -139 7 -126 8 18 2 22 8
22 37 0 27 -4 35 -17 35 -17 0 -18 39 -18 680 0 622 1 680 16 680 21 0 31 35
19 66 l-10 24 130 0 130 0 0 35 0 35 -323 0 -323 0 0 -35z"/>
<path d="M944 1315 l1 -35 323 0 322 0 0 35 0 35 -324 0 -323 0 1 -35z"/>
<path d="M949 1266 c0 -1 -2 -17 -3 -36 l-3 -35 158 0 c86 0 155 -3 153 -7 -3
-5 -12 -8 -20 -8 -10 0 -14 -12 -14 -45 l0 -45 46 0 45 0 -3 48 c-2 27 -8 47
-15 47 -6 0 -14 2 -16 5 -3 3 65 5 151 5 l157 0 3 36 3 36 -320 -1 c-177 0
-321 0 -322 0z"/>
<path d="M1270 591 c0 -5 4 -20 9 -34 5 -13 12 -40 15 -60 7 -42 24 -124 32
-149 4 -13 16 -18 44 -18 38 0 39 1 54 53 8 28 18 65 22 81 8 35 15 25 39 -67
l17 -68 42 3 41 3 21 97 c12 54 25 114 28 133 l7 35 -39 0 -39 0 -13 -72 -13
-73 -18 60 c-11 33 -19 66 -19 73 0 9 -13 12 -42 10 -45 -3 -43 0 -69 -98
l-12 -45 -7 35 c-4 19 -11 52 -14 73 -7 35 -9 37 -46 37 -22 0 -40 -4 -40 -9z"/>
<path d="M1701 477 c-24 -67 -46 -128 -49 -134 -3 -9 8 -13 37 -13 34 0 43 4
50 22 6 17 16 22 50 23 36 1 45 -2 54 -22 8 -19 18 -23 52 -23 l43 0 -51 135
-50 135 -46 0 -46 0 -44 -123z m107 -4 c11 -35 8 -43 -20 -43 -19 0 -21 10
-12 59 7 36 16 31 32 -16z"/>
<path d="M1970 465 l0 -135 39 0 40 0 3 93 c2 50 2 111 0 135 -3 42 -3 42 -43
42 l-39 0 0 -135z"/>
<path d="M2113 465 l0 -135 42 0 42 0 -2 55 -2 56 46 -3 46 -3 0 -50 0 -50 43
-3 42 -3 0 136 0 136 -42 -3 -43 -3 1 -42 c0 -24 -2 -44 -5 -44 -29 -6 -81 -3
-82 6 -1 5 -2 26 -3 45 -1 34 -3 35 -42 38 l-41 3 0 -136z"/>
<path d="M2426 478 c1 -68 2 -129 3 -135 1 -10 30 -13 111 -13 l110 0 0 30 0
30 -71 0 -70 0 3 27 c3 26 5 27 63 28 58 0 60 1 62 28 2 27 1 27 -63 27 -57 0
-64 2 -64 20 0 18 7 20 71 20 l70 0 -3 28 -3 27 -110 3 -110 3 1 -123z"/>
<path d="M2700 465 l0 -135 40 0 c39 0 40 1 40 33 0 22 8 41 23 55 l23 22 27
-55 27 -55 50 0 c28 0 49 3 47 8 -3 4 -24 39 -47 77 -23 39 -44 73 -46 76 -1
3 17 28 41 55 l44 49 -50 3 c-47 3 -52 1 -84 -35 -19 -21 -35 -41 -35 -45 0
-5 -4 -8 -10 -8 -5 0 -10 20 -10 45 l0 45 -40 0 -40 0 0 -135z"/>
<path d="M3010 465 l0 -135 115 0 115 0 -2 30 -2 30 -68 0 c-38 0 -69 4 -69
10 -6 45 -6 45 59 44 l62 -2 0 29 c0 29 0 29 -64 29 -55 0 -64 2 -62 18 2 14
15 18 69 20 67 3 67 3 67 32 l0 30 -110 0 -110 0 0 -135z"/>
</g>
</svg>
