<?xml version="1.0" standalone="no"?>
<!DOCTYPE svg PUBLIC "-//W3C//DTD SVG 20010904//EN"
 "http://www.w3.org/TR/2001/REC-SVG-20010904/DTD/svg10.dtd">
<svg version="1.0" xmlns="http://www.w3.org/2000/svg"
 width="800.000000pt" height="800.000000pt" viewBox="0 0 800.000000 800.000000"
 preserveAspectRatio="xMidYMid meet">
<metadata>
Created by potrace 1.11, written by Peter Selinger 2001-2013
</metadata>
<g transform="translate(0.000000,800.000000) scale(0.100000,-0.100000)"
fill="#000000" stroke="none">
<path d="M1695 7425 c-102 -23 -174 -86 -230 -200 -52 -104 -68 -182 -69 -320
-1 -66 2 -136 6 -155 15 -75 49 -167 76 -211 34 -52 86 -109 102 -109 5 0 10
-4 10 -9 0 -5 24 -19 53 -32 42 -18 69 -23 142 -23 82 0 95 3 148 33 90 49
144 116 183 228 25 74 13 95 -79 139 -92 43 -109 38 -123 -35 -10 -49 -43 -98
-78 -115 -81 -38 -164 19 -196 134 -53 192 35 459 146 447 47 -6 62 -16 99
-72 19 -30 43 -56 53 -59 21 -7 57 3 131 34 52 23 53 24 47 58 -8 53 -53 136
-99 181 -36 37 -110 81 -147 88 -48 9 -132 8 -175 -2z"/>
<path d="M5072 7405 c-7 -11 -9 -1014 -2 -1025 3 -4 57 -7 120 -6 l115 1 1
208 c1 165 4 211 14 217 8 5 18 6 22 4 7 -4 198 -7 269 -5 13 1 15 18 15 108
l-1 108 -157 -1 c-154 -1 -158 -1 -159 20 -1 22 -1 120 0 147 1 15 19 17 150
17 82 0 154 3 160 7 6 3 11 2 11 -3 0 -13 50 -2 51 12 4 61 3 86 -2 86 -4 0
-4 15 0 33 4 17 5 43 1 56 l-6 24 -298 1 c-179 1 -300 -3 -304 -9z"/>
<path d="M5847 7407 c-14 -4 -27 -16 -30 -26 -9 -34 -1 -131 11 -143 19 -19
173 -13 188 7 14 19 12 141 -2 155 -13 13 -135 18 -167 7z"/>
<path d="M6353 7370 c-101 -66 -149 -129 -141 -185 4 -29 -18 -54 -42 -48 -33
9 -42 -40 -31 -169 0 -10 14 -24 31 -33 36 -19 39 -34 45 -235 7 -280 31 -310
252 -324 l92 -6 0 33 c1 17 1 41 1 52 -1 11 -1 26 -1 33 1 6 1 18 2 25 0 6 -2
21 -5 32 -2 11 -5 23 -5 28 -1 4 -19 4 -40 1 -37 -6 -41 -4 -60 27 -17 28 -20
49 -19 145 1 137 12 170 62 179 41 8 57 24 63 63 8 57 2 137 -12 150 -3 3 -25
4 -50 4 -37 -2 -45 1 -46 15 0 10 0 65 0 123 2 144 -4 150 -96 90z"/>
<path d="M2241 7127 c-5 -12 -6 -31 -2 -42 8 -23 7 -73 -2 -81 -3 -3 -1 -19 3
-35 5 -16 5 -31 0 -34 -4 -3 -4 -20 0 -39 4 -19 5 -38 2 -41 -8 -7 -6 -191 3
-204 3 -6 2 -11 -4 -11 -6 0 -6 -11 -1 -30 5 -16 5 -30 1 -30 -9 0 -8 -37 1
-46 4 -3 3 -17 -2 -30 -6 -14 -6 -26 0 -29 6 -3 6 -15 0 -29 -5 -13 -6 -27 -2
-31 4 -3 7 -14 7 -23 0 -15 13 -17 93 -17 51 0 97 2 102 5 4 3 11 66 15 140 8
167 12 213 20 268 13 89 51 142 101 142 39 0 90 84 100 162 5 42 -13 58 -66
58 -56 0 -99 -25 -120 -72 l-19 -42 -20 46 c-17 40 -25 48 -58 56 -21 6 -62
10 -91 10 -46 0 -54 -3 -61 -21z"/>
<path d="M2989 7146 c-3 -3 -20 -8 -38 -11 -43 -7 -84 -29 -115 -60 -26 -26
-76 -105 -80 -127 -2 -7 -8 -33 -15 -57 -7 -23 -14 -76 -15 -116 -3 -65 0 -97
18 -181 9 -42 48 -107 87 -145 92 -90 213 -108 334 -49 156 75 228 297 166
508 -25 84 -98 172 -176 211 -39 19 -155 38 -166 27z m93 -216 c67 -62 82
-233 29 -322 -24 -40 -41 -49 -81 -44 -72 10 -94 53 -93 183 0 143 40 222 102
206 14 -3 33 -14 43 -23z"/>
<path d="M3566 7121 c-124 -65 -152 -227 -59 -349 20 -26 73 -64 93 -67 3 0
10 -3 15 -6 6 -3 44 -14 85 -24 89 -22 110 -37 110 -79 -1 -41 -28 -74 -67
-82 -26 -5 -37 -1 -60 22 -66 65 -139 82 -216 51 -43 -18 -46 -37 -16 -86 18
-30 74 -85 88 -87 3 0 24 -9 45 -18 89 -40 198 -40 286 -3 156 67 191 245 73
378 -49 54 -105 79 -257 114 -25 6 -53 32 -53 50 0 24 41 55 80 62 32 5 40 1
67 -27 26 -28 36 -32 92 -34 81 -3 116 9 125 42 19 78 -128 159 -303 166 -67
3 -83 0 -128 -23z"/>
<path d="M4335 7142 c-51 -5 -129 -31 -150 -50 -23 -20 -77 -88 -76 -96 1 -3
1 -7 0 -8 -41 -135 49 -251 244 -313 118 -38 150 -75 110 -124 -37 -45 -119
-34 -168 20 -26 30 -30 31 -87 26 -65 -5 -114 -32 -112 -61 1 -9 2 -23 3 -31
3 -34 107 -104 181 -120 104 -24 238 -2 306 50 113 86 122 241 22 338 -43 41
-136 88 -184 92 -12 1 -42 12 -68 24 -58 28 -71 64 -35 94 27 22 66 18 107
-12 33 -23 80 -34 147 -36 39 0 55 4 72 21 19 19 21 27 13 55 -9 31 -59 81
-84 85 -6 1 -27 9 -46 17 -20 9 -63 19 -95 22 -33 4 -62 8 -65 9 -3 1 -18 0
-35 -2z"/>
<path d="M5822 7141 c-5 -3 -8 -174 -8 -386 l1 -380 105 0 105 0 1 386 1 386
-98 0 c-54 0 -102 -3 -107 -6z"/>
<path d="M602 6929 c-19 -8 -421 -414 -496 -501 -61 -72 -75 -91 -76 -101 0
-6 165 -202 215 -253 19 -20 168 -184 190 -209 6 -6 30 -32 55 -58 l45 -47 1
-1913 c1 -1705 3 -1981 18 -2117 10 -97 35 -162 75 -199 10 -9 53 -56 97 -106
43 -49 88 -99 99 -110 11 -12 47 -52 80 -89 33 -38 74 -83 90 -101 17 -17 52
-56 79 -86 203 -227 383 -412 393 -406 5 3 54 8 109 12 54 3 113 9 129 13 l30
8 -2 158 c-2 189 -4 204 -41 212 -90 20 -134 55 -277 217 -27 32 -78 87 -111
122 -34 36 -60 65 -59 65 2 0 -11 15 -28 33 -18 18 -54 58 -82 88 -27 31 -86
95 -130 144 -44 48 -84 94 -89 102 -4 8 -10 851 -12 1872 -3 1712 -6 2093 -18
2224 -6 65 -52 125 -248 325 l-91 92 114 114 c63 62 130 121 149 131 27 14 63
18 168 21 74 1 136 5 139 8 3 2 4 55 4 118 -1 62 -1 122 -1 133 1 54 -1 79 -5
84 -8 7 -494 7 -513 0z"/>
<path d="M6883 6927 c-7 -11 -8 -155 -1 -162 3 -3 2 -22 -2 -43 -3 -20 -3 -49
1 -65 4 -15 4 -27 -1 -27 -13 0 1 -40 14 -41 6 0 67 -2 136 -3 97 -2 133 -7
159 -21 19 -9 86 -69 149 -131 l115 -114 -86 -88 c-48 -48 -105 -108 -127
-132 -48 -53 -95 -146 -105 -210 -4 -25 -9 -54 -11 -65 -6 -28 -13 -107 -20
-205 -3 -47 -7 -925 -9 -1953 l-2 -1867 -116 -123 c-130 -138 -139 -148 -257
-278 -249 -274 -344 -359 -401 -359 -19 0 -32 -7 -40 -22 -14 -25 -19 -367 -5
-375 21 -13 266 1 296 17 15 8 111 104 177 176 66 73 103 115 188 209 49 55
103 115 120 134 16 19 40 45 52 58 11 13 35 42 53 63 18 21 42 50 53 63 127
137 237 281 248 321 26 98 30 382 33 2343 l2 1773 35 37 c18 20 54 57 79 83
25 26 95 100 155 165 61 65 138 147 173 183 l62 66 -299 300 -300 300 -256 1
c-141 0 -259 -4 -262 -8z"/>
<path d="M6623 3832 c0 -12 5 -22 9 -22 11 0 10 12 -2 30 -7 12 -9 10 -7 -8z"/>
<path d="M6622 3723 c-1 -42 1 -74 4 -70 9 9 14 147 5 147 -4 0 -8 -35 -9 -77z"/>
<path d="M2028 1119 c-45 -12 -47 -16 -33 -72 8 -28 16 -63 19 -77 3 -14 10
-45 16 -70 6 -25 13 -54 15 -65 2 -11 6 -30 9 -42 4 -13 8 -33 11 -45 14 -68
38 -155 46 -170 7 -13 22 -18 53 -18 38 0 48 5 80 40 63 70 101 176 105 290 1
21 3 22 14 10 19 -21 43 -89 68 -195 32 -138 38 -145 116 -145 66 0 84 21 109
128 10 42 19 82 20 87 2 6 6 23 9 39 3 15 13 58 21 95 24 100 28 123 28 165 1
41 -5 46 -64 47 -70 1 -82 -15 -100 -131 -6 -41 -12 -82 -14 -90 -4 -30 -24
-55 -35 -45 -8 8 -32 83 -46 146 -7 34 -46 98 -67 113 -65 46 -118 2 -152
-124 -26 -97 -38 -129 -52 -134 -19 -7 -33 41 -38 134 -3 47 -8 93 -12 103 -6
17 -65 34 -82 23 -6 -3 -12 -2 -14 2 -1 5 -15 5 -30 1z"/>
<path d="M3431 1118 c-17 -6 -18 -26 -18 -282 l1 -276 67 0 c57 0 70 3 79 19
5 11 12 84 15 163 5 168 17 307 30 348 4 13 1 22 -9 26 -22 8 -144 10 -165 2z"/>
<path d="M3718 1119 c-9 -5 -12 -86 -12 -281 l0 -273 78 -3 c105 -4 108 -1
102 109 -5 106 0 111 85 115 67 2 98 -16 100 -58 3 -86 8 -121 23 -143 15 -22
23 -25 80 -25 43 0 63 4 64 13 1 12 2 470 0 519 0 28 -28 40 -64 28 -10 -4
-31 -4 -46 1 -17 5 -28 4 -28 -2 0 -6 -5 -7 -10 -4 -6 4 -17 2 -24 -4 -11 -9
-11 -24 0 -83 7 -40 13 -78 13 -83 1 -6 -39 -11 -102 -11 l-103 -1 2 31 c1 17
3 31 4 31 7 0 10 115 3 117 -51 9 -154 14 -165 7z"/>
<path d="M4369 1120 l-23 -6 0 -277 -1 -278 204 1 c234 2 261 8 252 63 -1 4
-3 17 -4 27 -7 42 -14 43 -157 40 -47 -1 -93 1 -102 5 -21 8 -35 70 -19 88 7
9 34 14 73 14 133 1 210 18 222 49 12 31 -54 58 -169 68 -77 7 -113 17 -120
34 -6 16 18 48 38 50 26 1 143 13 167 17 40 5 59 16 65 36 10 30 -4 59 -28 60
-12 1 -33 3 -47 4 -58 7 -140 8 -146 2 -3 -3 -12 -3 -20 0 -18 7 -158 9 -185
3z"/>
<path d="M4955 1120 l-50 -5 1 -260 c1 -143 2 -268 3 -277 1 -15 11 -18 64
-18 34 0 68 4 74 8 7 4 15 26 19 47 7 51 30 99 70 152 l32 43 53 -105 c29 -58
61 -113 72 -123 23 -20 197 -32 197 -13 0 6 -4 11 -10 11 -5 0 -10 4 -10 9 0
5 -23 47 -52 93 -28 46 -63 103 -77 126 -14 24 -34 56 -43 70 -9 15 -17 30
-17 33 -1 3 42 49 94 104 52 54 95 101 95 104 0 5 -79 6 -87 1 -2 -1 -24 -2
-50 -2 -57 -1 -99 -27 -158 -95 -73 -84 -116 -128 -111 -113 3 8 8 35 11 60 2
25 8 69 11 98 4 28 2 52 -2 53 -45 3 -87 3 -129 -1z"/>
<path d="M5634 1121 c-3 -3 -22 -4 -44 -3 -22 2 -40 -1 -41 -5 0 -4 -1 -131
-2 -281 l-2 -273 186 1 c182 2 252 9 271 28 5 5 11 23 14 39 8 51 -26 64 -154
63 -59 -1 -115 1 -124 5 -10 4 -20 23 -24 43 -8 42 15 66 59 59 15 -2 27 0 27
4 0 4 16 3 35 -1 19 -4 37 -4 40 1 3 4 12 6 19 3 19 -7 96 14 113 31 19 20 16
29 -17 48 -16 10 -30 15 -30 11 0 -3 -6 -2 -12 3 -7 5 -33 11 -58 12 -99 6
-157 19 -164 37 -14 37 13 50 124 60 30 2 76 9 103 15 39 9 47 15 47 33 0 53
-32 65 -175 66 -50 0 -99 1 -148 3 -21 1 -41 0 -43 -2z"/>
<path d="M2980 1112 c-21 -7 -35 -24 -42 -47 -8 -26 -96 -276 -105 -295 -3 -8
-7 -17 -8 -20 -1 -3 -11 -36 -23 -74 -34 -107 -31 -116 51 -116 49 1 68 13 90
57 22 42 29 45 96 48 76 2 106 -10 126 -51 20 -42 41 -54 99 -54 73 0 77 25
27 171 -94 272 -128 349 -165 368 -25 14 -119 22 -146 13z m104 -217 c25 -62
31 -111 14 -117 -11 -5 -72 -4 -101 1 -14 2 22 121 45 149 16 19 22 15 42 -33z"/>
</g>
</svg>
